
<svg width="97px" height="97px" viewBox="0 0 97 97" version="1.1" xmlns="http://www.w3.org/2000/svg" xmlns:xlink="http://www.w3.org/1999/xlink">
    <!-- Generator: Sketch 48.2 (47327) - http://www.bohemiancoding.com/sketch -->
    <desc>Created with Sketch.</desc>
    <defs></defs>
    <g id="Page-1" stroke="none" stroke-width="1" fill="none" fill-rule="evenodd">
        <g id="Artboard">
            <g id="logo">
                <g id="Group-2" fill="#166FC8" fill-rule="nonzero">
                    <g id="Group">
                        <circle id="Oval-2" cx="48.5" cy="48.5" r="48.5"></circle>
                    </g>
                </g>
                <g id="rocket" transform="translate(13.000000, 20.000000)" stroke="#FFFFFF">
                    <path d="M61.9091082,2.19880691 C61.7645084,1.65783479 61.342038,1.23549467 60.801062,1.09076872 C55.4485819,-0.340070717 49.782463,-0.363618915 44.4155992,1.02254259 C43.5790594,1.23867686 42.7544847,1.49261554 41.9407295,1.77493934 C41.870339,1.79415976 41.8009668,1.8183444 41.7332493,1.84749325 C37.2644057,3.43336893 33.1767911,6.00254099 29.7895176,9.38011634 C29.787481,9.38202565 29.7855717,9.38393496 29.7837897,9.38571699 C29.7750067,9.39449983 29.7659693,9.40277352 29.7571864,9.41155636 C29.7428028,9.42593986 29.7304558,9.44146894 29.7168359,9.45610701 C29.7037252,9.47036321 29.6895962,9.48334655 29.67674,9.49823919 L24.8825471,15.0778893 C17.3407053,14.9946432 10.011308,17.9745722 4.66735615,23.3184858 C2.92974125,25.0560882 1.43041037,27.0034606 0.211114118,29.1065056 C-0.0349344931,29.5308823 -0.0677749182,30.046015 0.122394055,30.4982677 C0.312563029,30.9506477 0.703720495,31.2874506 1.17901564,31.4082465 L9.87880066,33.6229227 L8.17657196,38.2457522 C7.33595891,40.5289091 7.90442921,43.1156469 9.62473288,44.8359382 L18.1638799,53.375024 C19.3564455,54.5673266 20.9648626,55.2064374 22.6002649,55.2064374 C23.3242817,55.2064374 24.0536446,55.0810592 24.7543676,54.8231746 L29.3776121,53.1209581 L31.5926861,61.8210626 C31.7134828,62.2963544 32.0505427,62.6876363 32.5026714,62.8778039 C32.6971681,62.9595226 32.90363,63 33.1093282,63 C33.381471,63 33.6527227,62.9291008 33.8944435,62.7888299 C35.9971217,61.5696697 37.9443807,60.0704769 39.6825048,58.3326198 C45.0268384,52.9883244 48.0053886,45.657834 47.923033,38.1164281 L53.5020866,33.3227786 C53.5165975,33.3103045 53.5293263,33.2964301 53.5434554,33.2834468 C53.5584754,33.2695724 53.5743865,33.2568437 53.5890246,33.2423329 C53.5979348,33.2334228 53.6062086,33.2241308 53.6151188,33.2154752 C53.6167735,33.2135659 53.6186828,33.2119112 53.6204649,33.2100019 C56.9980644,29.82288 59.5672549,25.7355492 61.1531419,21.2668649 C61.1819091,21.1987661 61.2063485,21.1291398 61.2255691,21.0583679 C61.5078949,20.2450004 61.7618354,19.4204316 61.9778439,18.5840251 C63.3636335,13.217327 63.3399578,7.551376 61.9091082,2.19880691 Z M4,28.1969745 C4.83745448,27.0395524 5.78389364,25.9496364 6.82737742,24.9412186 C10.9123973,20.9939551 16.3054873,18.5544089 22,18 L11.3297908,30 L4,28.1969745 Z M11.2088819,39.0118567 L12.7978278,35 L15,37.0474267 L11.6714741,42 C10.9942458,41.1496377 10.8089035,40.022146 11.2088819,39.0118567 Z M14,44.8147424 L16.951281,40 L19,42.0883881 L15.1627964,46 L14,44.8147424 Z M17,47.8371752 L20.9116553,44 L23,46.0486468 L18.1853576,49 L17,47.8371752 Z M23.9880693,51.7911764 C22.9776323,52.1910222 21.850378,52.0058159 21,51.3285771 L25.9525355,48 L28,50.2022061 L23.9880693,51.7911764 Z M37.0589944,56.1728021 C36.0506075,57.2162196 34.9606022,58.1623447 33.8033384,59 L32,51.6700396 L44,41 C43.4459764,46.694024 41.006014,52.0876606 37.0589944,56.1728021 Z M51.4838249,31.0003312 L30.5346394,49 L14,32.4654086 L26.7156104,17.6662348 C26.728009,17.652558 26.7397685,17.6382421 26.7517837,17.6240541 L31.9995933,11.5164118 C34.8598387,8.66563345 38.2698413,6.45140065 41.9955611,5 L58,21.0045202 C56.5488508,24.7302292 54.3346115,28.1402219 51.4838249,31.0003312 Z M59.0772434,18 L45,3.92280572 C49.6539463,2.7403298 54.545652,2.6940379 59.2146796,3.78524143 C60.3059073,8.45403459 60.2597455,13.3457632 59.0772434,18 Z" id="Shape" fill="#FFFFFF" fill-rule="nonzero"></path>
                    <circle id="Oval" stroke-width="4" cx="40.5" cy="22.5" r="6.5"></circle>
                </g>
            </g>
        </g>
    </g>
</svg>